<svg width="30" height="30" viewBox="0 0 30 30" fill="none" xmlns="http://www.w3.org/2000/svg">
<rect width="30" height="30" fill="#0062FF"/>
<path d="M9.25807 15.0003C9.25807 11.9449 11.6538 9.44123 14.6664 9.26817V10.7377C14.6664 11.4866 15.5715 11.8658 16.0977 11.3261L18.9209 8.50286C19.2536 8.17019 19.2536 7.64526 18.9209 7.31259L16.0961 4.48771C15.5701 3.96171 14.6664 4.33834 14.6664 5.08791V6.57341C10.1617 6.7483 6.56641 10.4526 6.56641 15.0003C6.56641 16.0959 6.7771 17.151 7.16794 18.1124C7.52972 19.0089 8.68567 19.2545 9.37307 18.5671C9.72837 18.2118 9.88877 17.6562 9.67793 17.1502L9.67754 17.1493C9.40213 16.494 9.25807 15.7586 9.25807 15.0003Z" fill="white"/>
<path d="M20.6264 11.4335C20.2727 11.7872 20.1103 12.3522 20.3211 12.8493C20.5891 13.5205 20.7414 14.247 20.7414 15.0003C20.7414 18.0557 18.3457 20.5593 15.3331 20.7324V19.2629C15.3331 18.5139 14.4279 18.1347 13.9017 18.6745L11.0785 21.4977C10.7459 21.8304 10.7459 22.3553 11.0785 22.688L13.9034 25.5129C14.4244 26.0338 15.3331 25.6694 15.3331 24.9228V23.4272C19.8378 23.2523 23.4331 19.548 23.4331 15.0003C23.4331 13.9047 23.2224 12.8497 22.8316 11.8883C22.4698 10.9917 21.3138 10.746 20.6264 11.4335Z" fill="white"/>
</svg>
