<svg width="117" height="152" viewBox="0 0 117 152" fill="none" xmlns="http://www.w3.org/2000/svg">
<path d="M0.765625 16C0.765625 7.16345 7.92907 0 16.7656 0H71.1329C75.3795 0 79.4519 1.68821 82.453 4.69274L112.086 34.3593C115.082 37.3593 116.766 41.4262 116.766 45.6665V136C116.766 144.837 109.602 152 100.766 152H16.7656C7.92907 152 0.765625 144.837 0.765625 136V16Z" fill="white"/>
<g clip-path="url(#clip0_294_1933)">
<path d="M74.6897 8.27637L109.347 42.5106L92.0184 45.6228L74.6897 42.5106L71.5391 25.3935L74.6897 8.27637Z" fill="#188038"/>
<path d="M74.6876 42.5106V8.27637H17.9755C12.7532 8.27637 8.52344 12.4545 8.52344 17.613V135.877C8.52344 141.035 12.7532 145.213 17.9755 145.213H99.893C105.115 145.213 109.345 141.035 109.345 135.877V42.5106H74.6876Z" fill="#34A853"/>
<path d="M27.4297 61.1841V106.311H90.4432V61.1841H27.4297ZM54.9981 98.5305H35.3064V87.6378H54.9981V98.5305ZM54.9981 79.8573H35.3064V68.9646H54.9981V79.8573ZM82.5665 98.5305H62.8748V87.6378H82.5665V98.5305ZM82.5665 79.8573H62.8748V68.9646H82.5665V79.8573Z" fill="white"/>
</g>
<defs>
<clipPath id="clip0_294_1933">
<rect width="100.822" height="136.937" fill="white" transform="translate(8.52344 8.27637)"/>
</clipPath>
</defs>
</svg>
