<svg width="108" height="112" viewBox="0 0 108 112" fill="none" xmlns="http://www.w3.org/2000/svg">
<g clip-path="url(#clip0_330_1838)">
<mask id="mask0_330_1838" style="mask-type:luminance" maskUnits="userSpaceOnUse" x="0" y="0" width="108" height="112">
<path d="M108 0H0V112H108V0Z" fill="white"/>
</mask>
<g mask="url(#mask0_330_1838)">
<path d="M11.796 7.32437L11.7773 7.32576L11.7586 7.32737C8.86942 7.5772 6.52552 8.7066 4.96799 10.7057C3.47189 12.6259 3 14.9682 3 17.1152V77.7752C3 81.3926 4.35622 84.3469 6.89907 87.741L6.9104 87.7561L6.92192 87.7711L19.9289 104.684L19.9379 104.696L19.947 104.708C21.2389 106.354 22.6824 107.611 24.6274 108.323C26.4696 108.997 28.4679 109.067 30.6095 108.965L30.6289 108.964L30.6483 108.963L94.9053 105.073L94.9212 105.072L94.9372 105.071C98.0352 104.85 100.703 103.976 102.509 101.921C104.29 99.8947 104.714 97.3024 104.714 94.8852V26.6422C104.714 25.0445 104.368 23.6107 103.295 22.2748C102.502 21.2893 101.348 20.4443 100.264 19.6501C100.191 19.5967 100.118 19.5436 100.046 19.4906L100.023 19.4738L99.9997 19.4573L81.9134 6.70583C79.7 5.09756 77.7954 3.92883 75.3699 3.37757C73.042 2.84852 70.4778 2.94893 67.0936 3.2392L67.0274 3.24488L11.796 7.32437Z" fill="white" stroke="white" stroke-width="6"/>
<path fill-rule="evenodd" clip-rule="evenodd" d="M67.35 6.22819L12.017 10.3152C7.553 10.7012 6 13.6182 6 17.1142V77.7742C6 80.4972 6.967 82.8272 9.3 85.9412L22.307 102.854C24.444 105.577 26.387 106.161 30.467 105.967L94.724 102.077C100.157 101.69 101.714 99.1602 101.714 94.8842V26.6412C101.714 24.4312 100.841 23.7942 98.271 21.9082L80.167 9.14419C75.894 6.03719 74.147 5.64519 67.35 6.22819ZM31.92 25.5242C26.673 25.8772 25.483 25.9572 22.503 23.5342L14.927 17.5082C14.157 16.7282 14.544 15.7552 16.484 15.5612L69.677 11.6742C74.144 11.2842 76.47 12.8412 78.217 14.2012L87.34 20.8112C87.73 21.0082 88.7 22.1712 87.533 22.1712L32.6 25.4782L31.92 25.5242ZM25.803 94.3012V36.3682C25.803 33.8382 26.58 32.6712 28.906 32.4752L92 28.7812C94.14 28.5882 95.107 29.9482 95.107 32.4742V90.0212C95.107 92.5512 94.717 94.6912 91.224 94.8842L30.847 98.3842C27.354 98.5772 25.804 97.4142 25.804 94.3012H25.803ZM85.403 39.4742C85.79 41.2242 85.403 42.9742 83.653 43.1742L80.743 43.7512V86.5242C78.216 87.8842 75.89 88.6612 73.946 88.6612C70.839 88.6612 70.063 87.6882 67.736 84.7742L48.706 54.8342V83.8012L54.726 85.1642C54.726 85.1642 54.726 88.6642 49.869 88.6642L36.479 89.4412C36.089 88.6612 36.479 86.7182 37.836 86.3312L41.333 85.3612V47.0612L36.48 46.6682C36.09 44.9182 37.06 42.3912 39.78 42.1952L54.147 41.2282L73.947 71.5552V44.7252L68.9 44.1452C68.51 42.0022 70.063 40.4452 72.003 40.2552L85.403 39.4742Z" fill="black"/>
</g>
</g>
<defs>
<clipPath id="clip0_330_1838">
<rect width="108" height="112" fill="white"/>
</clipPath>
</defs>
</svg>
