<svg width="46" height="46" viewBox="0 0 46 46" fill="none" xmlns="http://www.w3.org/2000/svg">
<rect width="46" height="46" rx="10" fill="white"/>
<g clip-path="url(#clip0_327_1940)">
<path d="M35.5 3H10.5C6.35786 3 3 6.35786 3 10.5V35.5C3 39.6421 6.35786 43 10.5 43H35.5C39.6421 43 43 39.6421 43 35.5V10.5C43 6.35786 39.6421 3 35.5 3Z" fill="#FFA500"/>
<path d="M13 38C15.7614 38 18 35.7614 18 33C18 30.2386 15.7614 28 13 28C10.2386 28 8 30.2386 8 33C8 35.7614 10.2386 38 13 38Z" fill="white"/>
<path d="M8 23C11.9782 23 15.7936 24.5804 18.6066 27.3934C21.4196 30.2064 23 34.0218 23 38H28C28 32.6957 25.8929 27.6086 22.1421 23.8579C18.3914 20.1071 13.3043 18 8 18V23Z" fill="white"/>
<path d="M8 13C11.283 13 14.5339 13.6466 17.5671 14.903C20.6002 16.1594 23.3562 18.0009 25.6777 20.3223C27.9991 22.6438 29.8406 25.3998 31.097 28.4329C32.3534 31.4661 33 34.717 33 38H38C38 30.0435 34.8393 22.4129 29.2132 16.7868C23.5871 11.1607 15.9565 8 8 8V13Z" fill="white"/>
</g>
<defs>
<clipPath id="clip0_327_1940">
<rect width="40" height="40" fill="white" transform="translate(3 3)"/>
</clipPath>
</defs>
</svg>
